<?xml version="1.0" encoding="utf-8"?>
<!-- Generator: Adobe Illustrator 22.0.1, SVG Export Plug-In . SVG Version: 6.00 Build 0)  -->
<svg version="1.1" id="Lager_1" xmlns="http://www.w3.org/2000/svg" xmlns:xlink="http://www.w3.org/1999/xlink" x="0px" y="0px"
	 viewBox="0 0 1366 768" style="enable-background:new 0 0 1366 768;" xml:space="preserve">
<style type="text/css">
	.st0{fill:none;stroke:#833177;stroke-width:10;stroke-miterlimit:10;}
</style>
<g>
	<path class="st0" d="M744.3,598.6c-11,0-22,0-33,0c-0.1-0.4-0.3-0.7-0.7-0.8c0-1.9,0.2-3.8,0.1-5.6c-0.4-8.1,3.3-18.4-1.5-23.6
		c-5-5.4-15.5-2-23.4-1.7c-7.6,0.4-9.3-2.3-9.1-9.4c0.5-15.6,0.1-15.6-15.8-15.6c-0.3,0-0.6,0-0.9,0c-17.5,0-17.3,0-16.8,17.8
		c0.1,4.7,1.2,6.8,6.3,6.6c6.6-0.3,13.2,0.2,19.7-0.2c6.2-0.3,8.3,2.1,8.1,8.2c-0.3,13.8-0.2,27.5,0,41.3c0,2.4-2.3,6.9,3.4,6.7
		c27.6,0.1,55.2,0.3,82.8,0.4c15.3,0.1,15.8,0,15.2,15.5c-0.3,8.2,2.6,9.8,10.1,9.8c34.2-0.4,68.4-0.2,102.5-0.2
		c23.4,0,23.1,0,23.3,23.4c0.1,7.2-2.1,8.8-9,8.8c-27.9-0.4-55.9,0.1-83.8-0.3c-7.6-0.1-9.6,2.4-9.3,9.6c0.6,11.9,0.6,23.9,0,35.8
		c-0.5,8.3,1.6,11.1,10.6,11c47.4-0.5,94.8-0.2,142.2-0.2c17.6,0,17.3,0,16.8-17.7c-0.2-5.7-2.4-6.8-7.3-6.6
		c-6.9,0.3-13.8-0.1-20.7,0.1c-4.3,0.2-6.1-1.1-6.1-5.8c0.2-17.6,0.2-35.2,0-52.7c0-4.1,1.5-5.5,5.5-5.3c7.2,0.2,14.4-0.1,21.7,0.1
		c4.4,0.1,6.9-0.8,6.9-6.2c0-6.1-3.1-14.7,1.5-17.8s12.7-1,19.2-1.2c1.6,0,3.2,0.2,4.7,0c6.1-0.7,8.5,2.4,8.6,8.1
		c0.1,2.2,0.3,4.4,0,6.6c-1.3,8,1.4,11,10.1,10.7c16.6-0.7,33.2,0,49.9-0.3c5.9-0.1,8.2,1.1,8.1,7.7c-0.4,18.5,0.2,37-0.1,55.5
		c-0.3,25.1-0.5,24.8,24.5,25.1c7.6,0.1,9.3-2.3,9.2-9.5c-0.3-39.5-0.3-79.1,0-118.6c0.1-7.3-1.7-10.1-9.3-9.5
		c-7.8,0.6-17.8,2.7-22.8-1.2c-5.4-4.1-1.2-14.6-1.9-22.3c-0.1-1.2-0.1-2.5-0.1-3.8c0.1-2.8-1.5-4.2-4-4.1c-9.4,0.2-20-3.2-27.6,1.5
		c-5.3,3.3-1.1,13.4-1.9,20.5c-0.1,1.2-0.1,2.5,0,3.8c0.5,4.6-1.5,5.9-5.9,5.9c-18.8-0.2-37.7-0.2-56.5,0c-4.6,0-5.9-1.6-5.9-6
		c0.2-25.7,0.2-51.5,0-77.2c0-4.6,1.5-6,6-5.7c7.2,0.3,14.4-0.1,21.6,0.2c4.9,0.2,6.7-1.7,6.4-6.6c-0.3-5.9,0.3-12-0.2-17.9
		c-0.5-6,1.9-7.3,7.5-7.2c17.9,0.3,35.8,0.4,53.6,0c6.1-0.1,7.3,2,7.2,7.6c-0.3,18.5,0.2,37,0,55.5c-0.3,25.3-0.5,24.9,24.5,25.3
		c7.8,0.1,9.2-2.5,9.1-9.6c-0.3-58.4-0.3-116.7,0-175.1c0-7.3-1.8-9.6-9.4-9.5c-26.4,0.3-26.3,0-24.8-26.3c0.2-4.5,1.5-5.9,6-5.8
		c8.8,0.2,17.5-0.2,26.3-0.4c1.5-0.4,1.7-1.5,1.7-2.8c0-15.6-0.1-31.2,0.1-46.8c0.1-4.6-1.8-6-6.1-5.9c-7.2,0.2-14.4,0.2-21.5,0
		c-5.2-0.2-6.3,2.3-6.1,6.8c0.3,8.1,0.1,16.2,0.2,24.3c-0.4,0.1-0.7,0.3-0.7,0.7c-11,0-22,0-33,0c-0.1-0.4-0.3-0.7-0.7-0.8
		c0-4.7,0.1-9.4,0.1-14.1c0-17,0-17-16.7-17c-16.8,0-17.2,0-17.1-17c0-6.3-2-8-8.1-7.9c-17.3,0.3-34.5,0.4-51.8,0
		c-6.2-0.1-8,1.8-8,8c0.1,16.9-0.2,16.9-16.4,16.9c-19.1,0-18.9,0-17.5,19.1c0.3,4.1,1.7,5.5,5.6,5.5c18.8-0.1,37.7-0.1,56.5,0
		c3.8,0,5.6-1.1,5.7-5.3c0.2-6.4-3.2-15.4,1.7-18.6c4.8-3.2,13.3-1,20.2-1.1c1.6,0,3.2,0.1,4.7,0c5.7-0.5,7.7,2.1,7.6,7.7
		c-0.3,13.8-0.2,27.6,0,41.4c0,2.6-2,6.8,3.5,7c7.5,0.1,15,0.2,22.6,0.4c2.4,0.1,5-0.6,6.2,2.7c3.4,9.1,1.4,18.5,1.1,27.8
		c-0.1,2.5-3.6,1.7-5.7,1.7c-7.2,0.1-14.4-0.2-21.6,0.1c-4.8,0.2-6.8-1.2-6.5-6.3c0.4-5.9-0.2-11.9,0.2-17.9
		c0.4-5.6-1.5-8.1-7.4-7.7c-6.3,0.4-12.6,0.4-18.8,0c-5.6-0.3-7.9,1.5-7.6,7.4c0.4,9.7,0.2,19.4,0.1,29.2
		c-0.1,19.5-0.2,19.5,19.6,19.5c14.3,0,14.8,0,14.2,14.6c-0.3,8,1.5,10.9,10.2,10.7c25-0.5,24.9-0.1,24,25.2
		c-0.2,4.6-1.1,6.7-6.2,6.6c-18.5-0.3-37-0.2-55.5,0c-4.7,0.1-6.4-1.2-6.6-6.3c-0.7-18.6-0.9-18.6-19.6-18.6c-2.2,0-4.4,0.2-6.6,0
		c-5.9-0.7-7.6,1.8-7.4,7.5c0.3,14.1,0,28.2,0.2,42.4c0.1,4.4-0.6,6.9-6,6.8c-18.8-0.3-37.6-0.2-56.5,0c-4.6,0-5.9-1.7-5.8-6.1
		c0.2-11.9,0.1-23.8,0.1-35.8c0-14.8,0-14.8-15-14.8c-17.9,0-18.1,0-18.4,17.8c-0.1,5.1-1.3,7.4-6.8,7c-6.9-0.4-13.8,0.1-20.7-0.1
		c-4.8-0.1-6.8,1.7-6.6,6.6c0.3,6.6,0,13.2,0.1,19.8c0,3.1-0.3,5.7-4.4,5.4c-9.6-0.5-21.3,3.6-28.3-1.8c-5.3-4.1-1.1-15.9-1.6-24.3
		c0-0.3,0-0.6,0-0.9c-0.5-4,1.2-5.5,5.3-5.3c7.5,0.3,15.1,0,22.6,0.1c3.5,0,5.9-0.5,6.1-5c0.5-8.6-4.1-20.4,1.9-25
		c5.6-4.3,16.8-1.5,25.5-1.4c4.9,0.1,6.5-1.7,6.5-6.6c-0.3-13.8,0.4-27.6-0.3-41.4c-0.3-7.3,2-8.8,8.9-8.7c25.6,0.3,25.6,0,25-25.2
		c6.3,0.1,12.5,0.3,18.8,0.3c15.4,0,15.1,0,15.4-15.2c0.1-6.6-1.1-10.1-8.6-9.1c-8,1-18.1-3.3-23.5,1.8c-5.1,4.8-0.9,14.9-1.7,22.6
		c-9.4,0.2-18.7,0.2-28.1,0.5c-4.3,0.2-6.1-1-6.2-5.7c-0.1-6.1,3.1-14.1-1.6-17.9c-4.8-3.8-12.7-0.8-19.2-1.2
		c-1.9-0.1-3.8-0.2-5.6,0c-5.6,0.8-7.7-1.3-7.5-7.2c0.4-12.8-0.6-25.7,0.4-38.5c0.7-9.5-2.8-11.3-11.5-11.1
		c-22.2,0.6-44.4,0.2-66.6,0.2c-23.6,0-23.6,0-23.4,24.1c-8.7,0.2-17.4,0.1-26,0.8c-6.4,0.5-8.6-1.4-8.4-8.1c0.4-16.5,0-33-0.1-49.4
		c3.7,0.1,7.5,0.4,11.2,0.4c22.8,0.1,23.2,0,22.8-22.5c-0.1-7.4,1.9-9.4,9.2-9.1c8,0.4,18.6,3.7,23.5-1.5c4.7-5.1,1.1-15.5,1.3-23.6
		c6.3,0.1,12.5,0.3,18.8,0.3c15.4,0,15.1,0,15.4-15.2c0.1-6.6-1.1-10.1-8.6-9.1c-8,1-18.2-3.3-23.5,1.8c-5,4.8-0.9,14.9-1.7,22.6
		c-3.1,0.2-6.2,0.4-9.4,0.4c-27.9,0-55.8,0-83.8,0.1c-3.3,0-7.6-1.8-8.5,4.4c-2.8,17.5-0.8,20.1,16.3,20.1c3.8,0,7.6,0.3,11.3-0.1
		c4.7-0.5,6.7,0.9,6.5,6c-0.4,8.5-0.3,16.9-0.4,25.4c-5.3,0.2-10.6,0.6-15.9,0.6c-17.5,0.1-17.8,0-17.9-17.2c0-5.6-1.4-8.1-7.3-7.6
		c-5.9,0.5-11.9,0.5-17.9,0c-6.4-0.5-9.2,1.4-8.6,8.3c0.6,7.8,0.1,15.7,0.1,23.5c0,17.7,0,17.7,17.8,17.7c16.2,0,16.2,0,16.2,15.9
		c0,15.5,0,15.5,15.1,15.5c18.1,0,18.1,0,18.8,18.1c0.1,3.5-0.3,6.4,5,7c27.4,3.4,28.8,2.3,28.6-24.7c0-0.3,0.1-0.6,0.2-0.9
		c8.1,0.2,16.3,0.7,24.4,0.3c6.8-0.3,9.5,2.3,9.8,9c0.8,16.2,0.9,16.2,17.4,16.2c0.6,0,1.3,0,1.9,0c14.6,0,14.6,0,14.6,14.9
		c0,17,0,16.8-17.3,17.1c-19.1,0.3-16.2-4.3-16.7,17.9c-0.1,4.8,1.5,6.8,6.4,6.7c7.2-0.2,14.4,0.2,21.6-0.1c4.4-0.2,5.8,1.2,6.1,5.8
		c1.6,26.1,1.7,26.1-24,26.3c-0.6,0-1.3,0.1-1.9,0c-6.8-1-8.3,2.3-8.2,8.6c0.3,21.6,0.1,43.3,0.1,64.9c0,14.8,0,14.8-14.8,14.8
		c-18.3,0-18.5,0-19,18.2c-0.1,4.6-1,6.9-6.2,6.6c-9.4-0.4-18.8-0.3-28.2-0.4c0-12.9,0.1-25.7,0.1-38.6c0-18.1,0-18.1,17.9-18.1
		c16.4,0,16.1,0,16.2-16.4c0-6.2-1.8-8.2-8-8c-13.5,0.4-27,0.1-40.4,0.1c-18.5,0-18.7,0-19.2,18.1c-0.1,4.4-0.7,7.1-6.1,6.8
		c-9.4-0.5-18.8-0.4-28.2-0.5c0-5.3-0.5-10.7,0-16c0.6-6.6-1.7-8.7-8.4-8.5c-14.4,0.5-28.8,0.1-43.2,0.1c-16.4,0-16.2,0-16.1,16.6
		c0,5.2,0.6,8,7,7.9c20.4-0.5,40.7-0.3,61.1-0.4c0,4-0.1,8.1-0.1,12.1c0,13.2,0,13.2,13.5,13.2c20.4,0,20.4,0,20.4,20.8
		c0,1.6,0.1,3.1,0,4.7c-0.5,4.4,1.3,6.1,5.8,6c9.3-0.3,18.7-0.2,28-0.2c0,5.9,0.4,11.9,0,17.8c-0.4,5.8,1.8,7.6,7.5,7.5
		c14.1-0.3,28.2-0.1,42.3-0.1c17.5,0,17.8,0,17.7-17.6c-0.1-6.5,2.2-7.6,8-7.6c18.8,0.2,37.6-0.1,56.4-0.2c3.7,3.1,4,7.3,4,11.7
		c-0.1,25.6,0,51.2,0.1,76.8c-0.4,0.1-0.7,0.3-0.7,0.7c-11,0-22,0-33,0c-0.1-0.4-0.3-0.7-0.7-0.8c0-8.1-0.1-16.2,0.2-24.3
		c0.2-4.5-0.9-7-6.1-6.8c-7.2,0.3-14.3,0.3-21.5,0c-5.2-0.2-6.3,2.3-6.1,6.9c0.3,8.1,0.1,16.2,0.2,24.3
		C744.6,597.9,744.3,598.2,744.3,598.6z M473.4,340.1c-22.6,1-45.2,1.2-67.8-0.1c0-5-0.4-10.1,0.1-15c0.7-6.8-1.4-9.5-8.7-9.1
		c-13.5,0.6-27,0.2-40.4,0.2c-17.8,0-18,0-18.3,17.9c-0.1,5.3-1.5,7.3-6.9,7c-6.9-0.4-13.8,0.1-20.7-0.1c-4.8-0.2-6.8,1.6-6.5,6.5
		c0.3,6.3-0.2,12.6,0.2,18.8c0.2,4.8-1.1,6.9-6.3,6.5c-5.9-0.4-12,0.4-17.9-0.2c-7.7-0.8-10.2,1.7-10.1,9.7
		c0.5,34.2,0.5,68.4,0.3,102.5c-0.2,25.5-0.5,25.2,25.1,25.4c7.5,0,8.6-2.6,8.5-9.2c-0.4-22.9,0.2-45.8-0.3-68.7
		c-0.2-7.8,1.2-11.7,10-10.4c5.8,0.8,11.9,0,17.9,0.2c4.1,0.1,6.2-1.1,6.3-5.8c0.2-6.4-3.3-15.1,1.9-18.5c4.7-3,12.8-0.7,19.3-0.8
		c2.5,0,5,0.2,7.5-0.1c4.2-0.5,5.2,1.5,5.4,5.4c0.4,6.4-3.3,15,2.1,18.5c4.7,3.1,12.7,1,19.3,1.2c1.6,0,3.2-0.1,4.7,0
		c5.6,0.6,7.8-1.5,7.6-7.4c-0.4-11-0.7-22,0.1-32.9c0.5-7.9-2.6-9.3-9.6-9.2c-25.5,0.2-25.3,0-24.6-25.6c0.1-5.6,2.1-6.7,7.1-6.6
		c9.1,0.2,18.2-0.3,27.2-0.4c0,6.3,0.3,12.5-0.1,18.8c-0.4,5.5,1.8,7,7,6.9c11.9-0.3,23.8-0.1,35.7-0.1c25.9,0.1,25.9,0.1,24.6-25.5
		c11.5,0,23.1,0.1,34.6,0.1c0,7.5-0.6,14.9,0,22.3c0.7,7.9-1.4,10.6-10,10.4c-24.3-0.6-24.3-0.2-24,23.9c-8.7,0.2-17.4,0.8-26.1,0.6
		c-6-0.2-8.2,1.6-8,8c0.4,15.9,0.1,31.9,0.1,47.8c-16.8,1.8-33.7,0.4-50.5,0.9c-20,0.5-16.8-4.3-17.3,18.2c-0.1,5,1.7,6.5,6.5,6.4
		c11.9-0.2,23.8,0.1,35.6-0.1c8.1-0.2,18.6,3.5,23.6-1.4c5.5-5.3,1.1-15.9,1.8-24.2c17.2,0.2,34.3,0.5,51.5,0.6
		c17.4,0.1,17.2,0,16.5-17.8c-0.2-4.7-1.4-6.8-6.4-6.5c-6.5,0.3-13.1-0.2-19.7,0.2c-5.8,0.4-8.5-1-8.1-7.6
		c0.6-8.4,0.2-16.8,0.2-25.2c9.4,0.2,18.8,0.5,28.2,0.4c4.3-0.1,5.9,1,6.1,5.7c0.2,6.3-3.4,14.9,2,18.4c4.7,3,12.7,1,19.3,1.1
		c1.6,0,3.1-0.1,4.7,0c5.5,0.6,7.7-1.2,7.6-7.2c-0.4-22.2-0.3-44.5,0-66.7c0.1-6.1-2.3-7.4-7.7-7.3c-8.7,0.2-17.5-0.2-26.2-0.4
		c-0.8-7.7,3.3-17.8-1.7-22.6c-5.4-5.1-15.5-1.1-23.6-1.7c-0.6,0-1.3,0.1-1.9,0c-4.7-0.5-6.9,1.3-6.6,6.3
		C473.8,328.2,473.5,334.2,473.4,340.1z M609.1,340.3c-8.8,0.2-17.5,0.6-26.3,0.4c-5.6-0.1-8,1.4-7.6,7.4c0.5,7.5,0.4,15,0.3,22.6
		c-0.3,27.4-0.4,27.3,26.8,26.3c5.5-0.2,6.8-2,6.7-7.1c-0.3-16.6-0.2-33.2-0.3-49.8c6.3,0.1,12.5,0.3,18.8,0.3
		c15.4,0,15.1,0,15.4-15.2c0.1-6.6-1.1-10.1-8.6-9.1c-8,1-18.2-3.3-23.5,1.8C605.8,322.5,610,332.6,609.1,340.3z M575.2,509.8
		c-5.6,0.2-11.3,0.4-16.9,0.4c-16.8,0.1-17.1,0-17-17c0-6.3-2-8-8.1-7.9c-14.4,0.4-28.9,0.1-43.3,0.1c-16.6,0-16.2,0-16.5,16.3
		c-0.1,7,2.6,8.2,8.7,8.1c16.9-0.4,33.9,0.1,50.8-0.2c6.7-0.1,8.7,2.3,8.6,8.8c-0.3,16-0.1,32-0.1,48c0,25.5,0,25.4,25.5,25
		c5.6-0.1,8.4-0.9,8.2-7.6c-0.5-24.8-0.3-49.5-0.3-74.3c6.3,0.1,12.5,0.3,18.8,0.3c15.4,0,15.1,0,15.4-15.2
		c0.1-6.6-1.1-10.1-8.6-9.1c-8,1-18.1-3.3-23.5,1.8C571.9,492,576.1,502.1,575.2,509.8z M744.5,113.5c5.3,0.2,10.6,0.6,15.9,0.6
		c17.8,0.1,18,0,18.2,17.7c0.1,5.8,1.8,7.8,7.5,7.5c6.3-0.4,12.6,0.3,18.8-0.2c6.3-0.5,7.9,1.7,7.8,7.9c-0.3,27-0.1,54-0.1,80.9
		c0,24.6,0,24.3,24.4,24.5c7.4,0.1,9.5-2.1,9.4-9.5c-0.3-42.7-0.2-85.3-0.2-128c0-25.6,0-25.6-25.5-25c-0.9,0-1.9,0.1-2.8,0
		c-4.2-0.3-5.2,1.9-5.4,5.7c-0.3,6.2,3.1,14.7-1.6,17.8c-4.6,3.1-12.7,1.1-19.2,1.2c-1.9,0.1-3.8-0.2-5.6,0
		c-6.2,0.9-7.9-1.7-7.8-7.8c0.3-21.3-0.3-42.7,0.3-64c0.2-8.1-2.5-9.8-10.1-9.7c-34.2,0.4-68.4,0.2-102.6,0.2
		c-22.6,0-22.6,0-22.9,23c0,0.3,0,0.6,0,1c-16.8,1.8-33.7,0.4-50.5,0.9c-20,0.5-16.8-4.3-17.3,18.2c-0.1,5,1.7,6.5,6.5,6.4
		c11.9-0.2,23.8,0.1,35.6-0.1c8.1-0.2,18.6,3.5,23.6-1.4c5.5-5.3,1.1-15.9,1.8-24.2c30.6,0.2,61.3,0.7,91.9,0.5
		c7.9,0,10.4,3,10.3,10.3c-0.3,15.3-0.1,30.6-0.2,46c-9.6,1.8-19.3,0.3-29,0.9c-4.4,0.3-5-2-5.2-5.7c-0.4-6.1,3.1-14.1-1.7-17.9
		s-12.7-0.8-19.2-1.2c-1.9-0.1-3.8,0.2-5.6,0c-5.3-0.6-7.1,1.6-7,7c0.3,11.9,0.4,23.9,0,35.8c-0.2,5.7,2.3,6.8,7.2,6.7
		c11.6-0.2,23.2,0.1,34.8-0.1c8.1-0.2,18.6,3.5,23.7-1.4C748.3,132.5,743.9,121.8,744.5,113.5z M388.2,227.2
		c36.7,0,73.4-0.2,110.1,0.1c6.7,0.1,9.1-1.2,9.1-8.7c-0.3-58.7-0.3-117.4,0-176.1c0-7.4-2-9.5-9.4-9.4c-72.8,0.3-145.6,0.3-218.4,0
		c-7.2,0-9.6,1.6-9.6,9.3c0.3,58.7,0.3,117.4,0,176c0,7.2,2.1,8.9,9,8.8C315.4,227,351.8,227.2,388.2,227.2z M998.7,227.2
		c37,0,74.1-0.1,111.1,0.1c6.1,0,7.9-1.7,7.9-7.9c-0.2-59.3-0.2-118.6,0-177.9c0-6.9-2.3-8.3-8.7-8.3c-73.4,0.2-146.9,0.2-220.3,0
		c-6.7,0-8.4,2.1-8.4,8.5c0.2,59,0.3,118-0.1,177c0,7.6,2.6,8.6,9.2,8.6C925.9,227,962.3,227.2,998.7,227.2z M388.3,735.8
		c37,0,74.1-0.1,111.1,0.1c6,0,8-1.4,8-7.8c-0.2-59.3-0.2-118.6,0-177.9c0-6.7-2.1-8.4-8.5-8.4c-73.4,0.2-146.9,0.2-220.3,0
		c-6.5,0-8.5,1.8-8.5,8.4c0.2,59,0.3,118,0,177c0,7.4,2.3,8.8,9.1,8.7C315.5,735.7,351.9,735.8,388.3,735.8z M557.5,308.8
		c9.1,0,18.2,0.2,27.2-0.1c7.8-0.2,17.8,3.4,22.7-1.6c4.8-4.9,1.4-14.9,1.4-22.7c0.2-26,0.1-25.8-26.3-25.2c-5.9,0.1-7.3,2-7.4,7.6
		c-0.2,17.3-0.4,17.3-17.8,17.3c-16,0-16.5,0-16.1-16.2c0.2-7.3-2.3-8.9-9.1-8.8c-25.4,0.4-50.8,0.1-76.2,0.1
		c-16.6,0-16.2,0-16.5,16.3c-0.1,7,2.5,8.3,8.7,8.1c13.5-0.4,27-0.1,40.4-0.1c18.2,0,18.5,0,18.7,18.1c0,6.3,2.7,7.1,7.9,7.1
		C529.3,308.6,543.4,308.8,557.5,308.8z M694.3,655c-14.4,0-28.9,0.3-43.3-0.1c-6.2-0.2-8,1.8-8,8c0.1,16.9-0.2,16.9-17.3,16.9
		c-0.3,0-0.6,0-0.9,0c-15.7,0-15.4,0-15.7,16.2c-0.1,6.5,1.7,8.7,8.4,8.5c13.5-0.5,27-0.1,40.4-0.1c18.2,0,18.4,0,18.7-18.4
		c0.1-5.3,1.6-6.9,6.9-6.8c15.1,0.3,30.1,0.1,45.2,0.1c16.3,0,16,0,16.1-16.6c0-6.4-2.2-8-8.1-7.8C722.5,655.3,708.4,655,694.3,655z
		 M575,735.8c5.6,0,11.3,0,16.9,0c18.3,0,18.1,0,17.1-18.3c-0.3-4.4-1.5-6.2-6-6c-7.5,0.2-15.1-0.1-22.6,0.1c-4,0.1-5.6-1.3-5.5-5.4
		c0.2-6.6-0.2-13.2,0.1-19.8c0.2-4.8-1.3-6.9-6.3-6.7c-6.9,0.3-13.8,0.3-20.7,0c-5.6-0.3-6.8,2.3-6.7,7.3c0.3,14.1,0.3,28.2,0,42.3
		c-0.1,4.9,1.4,6.7,6.4,6.5C556.8,735.6,565.9,735.8,575,735.8z M574.6,170.7c6,0,11.9,0,17.9,0c17.5,0,17.3,0,16.6-17.9
		c-0.2-4.9-1.7-6.7-6.6-6.5c-6.9,0.3-13.8-0.2-20.7,0.2c-5.4,0.3-6.9-1.6-6.9-6.9c-0.1-8,3.8-18.6-1.8-23.3
		c-5.8-4.9-16.2-1.1-24.6-1.6c-0.3,0-0.6,0-0.9,0c-4.3-0.3-6.2,1.2-6.2,5.9c0.2,14.7,0.2,29.5,0,44.2c-0.1,4.5,1.5,6.1,6,6
		C556.4,170.5,565.5,170.7,574.6,170.7z M676.7,396.7c9.4,0,18.8-0.2,28.2,0.1c4.5,0.1,6-1.6,5.9-6c-0.2-14.7-0.2-29.5,0-44.2
		c0.1-4.7-2-6-6.2-5.9c-7.2,0.2-14.4,0.2-21.6,0c-4.5-0.1-6.3,1.7-5.9,6.2c0.2,2.8,0,5.6,0,8.5c0,17.1,0,17.1-17.1,17.1
		c-17.2,0-16.9,0-16.9,16.8c0,5.6,1.3,7.9,7.3,7.6C659.1,396.4,667.9,396.7,676.7,396.7z M304.5,259.4c-5.6,0-11.3,0-16.9,0
		c-18.4,0-18.2,0-17.6,18.1c0.2,5.1,2,6.5,6.6,6.3c7.2-0.3,14.4,0.2,21.6-0.2c4.6-0.2,5.8,1.5,5.9,5.9c0.1,6.1-3,14.1,1.5,17.9
		c4.7,4,12.7,0.9,19.2,1.3c2.5,0.1,5-0.1,7.5,0c4.1,0.2,5.4-1.7,5.3-5.7c-0.2-12.5-0.3-25.1,0-37.6c0.1-5.4-2.5-6.2-6.9-6.1
		C322.1,259.6,313.3,259.4,304.5,259.4z M727.3,735.8c12.2,0,24.4,0,36.7,0c14.7,0,14.3,0,14.8-15c0.2-7.5-2-9.6-9.4-9.4
		c-25.4,0.5-50.8,0.2-76.2,0.2c-16.4,0-16,0-16.2,16.6c-0.1,6.3,2,8,8,7.8C699,735.6,713.2,735.8,727.3,735.8z M1016.2,538.8
		c0.3,8.7-3.5,19.8,1.4,25.5c5.2,5.9,16.5,1.2,25.1,2c5.1,0.5,7.4-1.3,7.1-6.8c-0.4-8.1-0.2-16.3-0.1-24.4
		c0.3-25.6,0.4-25.6-25.6-24.8c-0.3,0-0.6,0-0.9,0c-5.1-0.5-7.4,1.5-7.1,6.9C1016.5,524.4,1016.2,531.6,1016.2,538.8z M625.5,647.9
		c17.9,0,17.7,0,17.5-17c0-5.6-1.5-8-7.4-7.6c-6.9,0.4-13.8-0.1-20.7,0.2c-4.3,0.2-6-1-6.1-5.7c-0.1-6.1,3.1-14.1-1.7-17.9
		c-4.8-3.8-12.7-1.1-19.2-1.2c-14.3-0.1-11.9-1.5-12.8,12.4c-0.6,9.1,1.5,13.5,11.5,11.9c4.3-0.7,8.8,0.3,13.1-0.2
		c7.6-0.8,9.7,2.3,9.6,9.7c-0.4,15.4,0,15.4,15.1,15.4C624.8,647.9,625.2,647.9,625.5,647.9z M913.7,396.7c6.3,0,12.5,0,18.8,0
		c15.8,0,15.5,0,15.7-15.9c0.1-6.5-1.7-8.8-8.4-8.5c-14.1,0.5-28.2,0.1-42.3,0.1c-18.3,0-18.1,0-17.1,18.4c0.2,4.5,1.6,6.1,6,5.9
		C895.5,396.6,904.6,396.7,913.7,396.7z M982.3,679.6c0,25.4,0,25.3,25.7,24.9c6-0.1,8.3-1.6,8-7.9c-0.5-10.9-0.6-21.9,0-32.8
		c0.4-7.1-2-8.9-8.9-8.9C982.3,655,982.3,654.7,982.3,679.6z M1032.8,735.8c2.2,0,4.4-0.3,6.6,0.1c8.8,1.5,11.1-2.3,10.6-10.7
		c-0.9-15.5,1.9-13.4-13.5-13.6c-5-0.1-10,0.1-15,0c-3.3-0.1-4.9,1-5.4,4.7C1013.6,734.2,1014.9,735.8,1032.8,735.8z M558.7,202.9
		c-19.4,0.3-17.2-2.2-17.2,11.5c0,14.6-2.3,12.5,13,12.8c5,0.1,10-0.1,15,0c3.8,0.1,5.3-1.1,5.6-5.3
		C576.7,202.9,576.9,202.9,558.7,202.9z M761.4,227.2c17.2,0,17.2,0,17.1-11.5c-0.1-14.6,1.9-12.6-13.1-12.8c-5-0.1-10,0.1-15,0
		c-4-0.1-5.2,1.6-5.5,5.5C743.2,227.2,743.1,227.2,761.4,227.2z M354.3,509.8c17.3,0,17.4,0,17.2-11.4c-0.1-14.7,2-12.7-13-12.9
		c-5-0.1-10,0-15,0c-3.1,0-5,0.6-5.6,4.5C335.2,507.4,337,509.8,354.3,509.8z"/>
	<path class="st0" d="M898.1,509.8c14.1,0,28.3,0.4,42.4-0.2c6.9-0.3,8.2,2.2,8.1,8.5c-0.3,24.2-0.4,48.3,0,72.5
		c0.1,7-2.4,8.2-8.6,8.1c-28.6-0.3-57.1-0.3-85.7,0c-5.9,0.1-8.2-1.2-8.1-7.7c0.4-24.5,0.3-49,0-73.4c-0.1-5.9,1.1-8.2,7.6-8
		C868.6,510.1,883.3,509.8,898.1,509.8z M896.9,566.3c17.2,0,17.3,0,17.2-11.4c-0.1-14.6,2-12.7-13-12.9c-5-0.1-10,0-15,0
		c-3.1,0-5,0.6-5.6,4.5C877.8,563.9,879.6,566.3,896.9,566.3z"/>
	<path class="st0" d="M388.7,202.9c-25.7,0-51.5-0.2-77.2,0.1c-6.2,0.1-7.9-1.8-7.8-7.9c0.2-43.3,0.3-86.6,0-129.9
		c0-6.3,1.9-7.7,7.9-7.7c51.5,0.2,102.9,0.2,154.4,0c6.2,0,7.9,1.6,7.8,7.8c-0.3,43.3-0.3,86.6,0,129.9c0,6.2-1.8,7.9-7.9,7.9
		C440.2,202.7,414.4,202.9,388.7,202.9z M388.3,170.7c14.7,0,29.5-0.2,44.2,0.1c5.2,0.1,7.1-1.3,7-6.8c-0.3-22.3-0.3-44.5,0-66.8
		c0.1-5.9-2-7.4-7.6-7.4c-28.8,0.2-57.7,0.2-86.5,0c-5.7,0-7.6,1.7-7.5,7.5c0.3,21.9,0.4,43.9,0,65.8c-0.1,6.5,2.2,7.9,8.1,7.7
		C360.1,170.4,374.2,170.7,388.3,170.7z"/>
	<path class="st0" d="M999.2,202.9c-25.7,0-51.5-0.2-77.2,0.1c-5.9,0.1-8.1-1.3-8-7.7c0.3-43.6,0.2-87.3,0-130.9
		c0-5.2,1.2-6.9,6.7-6.9c52.1,0.2,104.2,0.2,156.3,0c6.2,0,7.1,2.3,7.1,7.6c-0.2,43.3-0.3,86.6,0.1,129.9c0.1,7-2.5,8.1-8.7,8
		C1050.1,202.8,1024.7,202.9,999.2,202.9z M998.2,170.7c15,0,30.1-0.1,45.1,0.1c4.7,0.1,6.6-1.2,6.6-6.3c-0.2-22.6-0.2-45.1,0-67.7
		c0.1-5.4-1.8-7-7.1-6.9c-29.2,0.2-58.3,0.2-87.5,0c-5.2,0-7.1,1.5-7.1,6.9c0.2,22.2,0.3,44.5,0,66.8c-0.1,6,2.1,7.4,7.6,7.3
		C969.9,170.5,984.1,170.7,998.2,170.7z"/>
	<path class="st0" d="M389.7,566.3c25.4,0,50.8,0.2,76.3-0.1c6.1-0.1,7.9,1.5,7.9,7.7c-0.3,43.3-0.3,86.6,0,129.9
		c0,6.1-1.7,7.9-7.9,7.9c-51.5-0.2-103-0.2-154.4,0c-6.2,0-7.9-1.8-7.8-7.9c0.2-43.3,0.3-86.6,0-129.9c0-6.2,1.8-7.8,7.9-7.7
		C337.6,566.5,363.6,566.3,389.7,566.3z M388.3,679.3c14.7,0,29.5-0.2,44.2,0.1c5.2,0.1,7.1-1.3,7-6.8c-0.3-22.3-0.3-44.5,0-66.8
		c0.1-5.9-2-7.4-7.6-7.4c-28.8,0.2-57.7,0.2-86.5,0c-5.7,0-7.6,1.7-7.5,7.5c0.3,21.9,0.4,43.9,0,65.8c-0.1,6.5,2.3,7.8,8.1,7.7
		C360.1,679.1,374.2,679.3,388.3,679.3z"/>
</g>
</svg>
